An Academy Award winner for Best Visual Effects, 'Bedknobs And Broomsticks' features a spellbinding mix of live action and animation that makes it one of Disney's most delightfully endearing Classics!

Screen legend Angela Landsbury gives a bewitching performance as an amateur witch who reluctantly takes in three precocious orphans. The children soon find themselves swept aboard a flying bed, it's magic brass bedknob their ticket to on fantastic adventure after another - including a visit to an enchanted island inhabited by wondrous animated animal characters, and the most hilarious soccer match in motion picture history. Now it's your turn to take a ride on 'Bedknobs And Broomsticks', a fun-filled flight of fantasy, music and Disney magic for all ages!

Format : MPEG-4
Format profile : Base Media / Version 2
Codec ID : mp42
File size : 899 MiB
Duration : 2h 13mn
Overall bit rate : 941 Kbps
Encoded date : UTC 2009-08-02 03:14:58
Tagged date : UTC 2009-08-02 10:14:14
Writing application : HandBrake 0.9.3 2008112300

Video
ID : 1
Format : AVC
Format/Info : Advanced Video Codec
Format profile : Main@L4.0
Format settings, CABAC : Yes
Format settings, ReFrames : 3 frames
Codec ID : avc1
Codec ID/Info : Advanced Video Coding
Duration : 2h 13mn
Bit rate mode : Variable
Bit rate : 777 Kbps
Width : 676 pixels
Height : 576 pixels
Display aspect ratio : 1.669
Frame rate mode : Variable
Frame rate : 25.000 fps
Minimum frame rate : 12.500 fps
Maximum frame rate : 57.143 fps
Resolution : 24 bits
Colorimetry : 4:2:0
Scan type : Progressive
Bits/(Pixel*Frame) : 0.080
Stream size : 743 MiB (83%)
Writing library : x264 core 65


Audio
ID : 2
Format : AAC
Format/Info : Advanced Audio Codec
Format version : Version 4
Format profile : LC
Format settings, SBR : No
Codec ID : 40
Duration : 2h 13mn
Bit rate mode : Variable
Bit rate : 160 Kbps
Maximum bit rate : 221 Kbps
Channel(s) : 2 channels
Channel positions : L R
Sampling rate : 48.0 KHz
Resolution : 16 bits
Stream size : 153 MiB (17%)
Language : English
Encoded date : UTC 2009-08-02 03:14:58
Tagged date : UTC 2009-08-02 10:14:00
